HIERARCHY
ROOT Pelvis
{
	OFFSET 0.000000 0.000000 0.000000
	CHANNELS 6 Xposition Yposition Zposition Xrotation Yrotation Zrotation
	JOINT LeftUpLeg_virtual
	{
		OFFSET 0.000000 0.000000 0.000000
		CHANNELS 3 Xrotation Yrotation Zrotation
		JOINT LeftUpLeg
		{
			OFFSET 18.735201 -5.666702 -4.541200
			CHANNELS 3 Xrotation Yrotation Zrotation
			JOINT LeftLeg
			{
				OFFSET -0.021200 -31.938179 0.493100
				CHANNELS 3 Xrotation Yrotation Zrotation
				JOINT LeftFoot
				{
					OFFSET 0.021200 -31.938179 -4.336299
					CHANNELS 3 Xrotation Yrotation Zrotation
					JOINT LeftToeBase
					{
						OFFSET 0.943001 -26.722000 15.023500
						CHANNELS 3 Xrotation Yrotation Zrotation
						End Site
						{
							OFFSET 0 0 0
						}
					}
				}
			}
		}
	}
	JOINT RightUpLeg_virtual
	{
		OFFSET 0.000000 0.000000 0.000000
		CHANNELS 3 Xrotation Yrotation Zrotation
		JOINT RightUpLeg
		{
			OFFSET -18.735201 -5.666702 -4.541200
			CHANNELS 3 Xrotation Yrotation Zrotation
			JOINT RightLeg
			{
				OFFSET 0.018946 -31.938133 0.493100
				CHANNELS 3 Xrotation Yrotation Zrotation
				JOINT RightFoot
				{
					OFFSET -0.018946 -31.938126 -4.336299
					CHANNELS 3 Xrotation Yrotation Zrotation
					JOINT RightToeBase
					{
						OFFSET -0.943001 -26.722004 15.023500
						CHANNELS 3 Xrotation Yrotation Zrotation
						End Site
						{
							OFFSET 0 0 0
						}
					}
				}
			}
		}
	}
	JOINT Hips_virtual
	{
		OFFSET 0.000000 0.000000 0.000000
		CHANNELS 3 Xrotation Yrotation Zrotation
		JOINT Hips
		{
			OFFSET -0.000000 -0.000000 -0.000000
			CHANNELS 3 Xrotation Yrotation Zrotation
			JOINT Spine
			{
				OFFSET 0.000000 10.199997 -0.299500
				CHANNELS 3 Xrotation Yrotation Zrotation
				JOINT Spine1
				{
					OFFSET 0.000000 11.900002 -1.516600
					CHANNELS 3 Xrotation Yrotation Zrotation
					JOINT Spine2
					{
						OFFSET 0.000000 13.600006 -2.842500
						CHANNELS 3 Xrotation Yrotation Zrotation
						JOINT Neck_virtual
						{
							OFFSET 0.000000 0.000000 0.000000
							CHANNELS 3 Xrotation Yrotation Zrotation
							JOINT Neck
							{
								OFFSET 0.000000 9.624100 -2.890100
								CHANNELS 3 Xrotation Yrotation Zrotation
								JOINT Head
								{
									OFFSET 0.000000 14.068802 -1.351900
									CHANNELS 3 Xrotation Yrotation Zrotation
									End Site
									{
										OFFSET 0 0 0
									}
								}
							}
						}
						JOINT LeftShoulder_virtual
						{
							OFFSET 0.000000 0.000000 0.000000
							CHANNELS 3 Xrotation Yrotation Zrotation
							JOINT LeftShoulder
							{
								OFFSET 15.263000 10.923401 -0.547700
								CHANNELS 3 Xrotation Yrotation Zrotation
								JOINT LeftArm
								{
									OFFSET 25.438599 -2.830597 -13.032500
									CHANNELS 3 Xrotation Yrotation Zrotation
									JOINT LeftForeArm
									{
										OFFSET 29.960503 0.000000 0.000000
										CHANNELS 3 Xrotation Yrotation Zrotation
										JOINT LeftHand
										{
											OFFSET 27.849251 0.000000 0.000000
											CHANNELS 3 Xrotation Yrotation Zrotation
											End Site
											{
												OFFSET 0 0 0
											}
										}
									}
								}
							}
						}
						JOINT RightShoulder_virtual
						{
							OFFSET 0.000000 0.000000 0.000000
							CHANNELS 3 Xrotation Yrotation Zrotation
							JOINT RightShoulder
							{
								OFFSET -15.263000 10.923401 -0.547700
								CHANNELS 3 Xrotation Yrotation Zrotation
								JOINT RightArm
								{
									OFFSET -25.438599 -2.830597 -13.032500
									CHANNELS 3 Xrotation Yrotation Zrotation
									JOINT RightForeArm
									{
										OFFSET -29.960503 0.000000 0.000000
										CHANNELS 3 Xrotation Yrotation Zrotation
										JOINT RightHand
										{
											OFFSET -27.849251 0.000000 0.000000
											CHANNELS 3 Xrotation Yrotation Zrotation
											End Site
											{
												OFFSET 0 0 0
											}
										}
									}
								}
							}
						}
					}
				}
			}
		}
	}
}
MOTION
Frames: 4
Frame Time: 0.03333333
-3.573022 80.484116 31.227877 0.000000 0.000000 0.000000 5.465570 -51.407111 8.100376 1.969986 14.322304 -10.347229 49.065009 -8.987418 -8.009691 -39.119188 -11.279501 18.641847 0.000000 0.000000 0.000000 5.465570 -51.407111 8.100376 -56.542314 -0.229320 -3.342506 16.389555 8.836937 2.885531 -0.943587 3.017239 22.049840 0.000000 0.000000 0.000000 5.465570 -51.407111 8.100376 0.000000 0.000000 0.000000 11.636105 -6.495144 4.425139 7.182700 -7.370581 1.871815 0.000000 0.000000 0.000000 -3.934132 -6.959432 2.025284 0.785833 8.373080 -1.657879 0.000000 0.000000 0.000000 -3.934132 -6.959432 2.025284 1.383207 -5.637197 -0.733880 -2.266009 -2.878861 -36.679455 -0.000814 -20.848229 -3.050613 0.000000 0.000000 0.000000 -3.934132 -6.959432 2.025284 9.987210 -5.269196 3.687163 4.872919 -1.636438 76.375503 -10.545824 13.289824 4.346984 0.000000 0.000000 0.000000 
-2.544876 80.638855 29.911663 0.000000 0.000000 0.000000 5.553086 -52.561267 7.598592 4.374779 13.654348 -10.518538 44.746922 -8.471214 -7.918226 -42.558895 -10.797897 17.144951 0.000000 0.000000 0.000000 5.553086 -52.561267 7.598592 -56.505291 -1.244498 -3.942532 15.614453 9.341326 3.713993 2.506679 4.092736 23.234321 0.000000 0.000000 0.000000 5.553086 -52.561267 7.598592 0.000000 -0.000003 0.000000 11.509717 -6.356239 4.532003 6.897510 -6.951606 1.878611 0.000000 0.000000 0.000000 -4.209826 -6.549566 2.113402 0.632835 8.368443 -1.599998 0.000000 0.000000 0.000000 -4.209826 -6.549566 2.113402 1.270529 -5.316220 -0.766511 -4.829679 -2.597521 -36.315091 -0.000758 -23.380839 -2.655192 0.000000 0.000000 0.000000 -4.209826 -6.549566 2.113402 10.009427 -5.246989 3.894582 5.281019 -0.456758 74.450346 -9.017202 16.459801 6.074795 0.000000 0.000000 0.000000 
-1.461724 81.004868 28.651062 0.000000 0.000000 0.000000 5.800967 -53.469952 7.753375 5.576364 13.003639 -10.945622 41.236994 -7.667951 -7.795739 -44.142372 -9.732979 15.352199 0.000000 0.000000 0.000000 5.800967 -53.469952 7.753375 -57.333728 -0.907372 -3.995679 16.770297 9.401705 3.355308 6.108987 4.990100 22.873923 0.000000 0.000000 0.000000 5.800967 -53.469952 7.753375 0.000000 -0.000002 0.000000 11.429193 -6.194548 4.599528 6.702441 -6.646091 1.735219 0.000000 0.000000 0.000000 -4.396968 -6.222343 2.032134 0.446177 8.384827 -1.659346 0.000000 0.000000 0.000000 -4.396968 -6.222343 2.032134 1.193839 -5.438142 -0.666392 -7.183534 -1.982282 -36.296172 -0.000737 -25.615151 -2.431709 0.000000 0.000000 0.000000 -4.396968 -6.222343 2.032134 10.002482 -5.247367 3.791891 5.106706 1.244150 72.693949 -7.342026 18.797420 7.476825 0.000000 0.000000 0.000000 
-0.565967 81.295090 27.521477 0.000000 0.000000 0.000000 6.066471 -54.046228 8.147078 6.086134 11.889280 -11.259458 38.601511 -7.141683 -7.366454 -45.427411 -8.381132 12.949076 0.000000 0.000000 0.000000 6.066471 -54.046228 8.147078 -58.423205 0.300088 -4.113102 18.467769 9.342030 2.316324 10.190265 5.803739 23.692152 0.000000 0.000000 0.000000 6.066471 -54.046228 8.147078 0.000000 -0.000001 0.000000 11.401276 -6.066218 4.592009 6.628103 -6.390923 1.563484 0.000000 0.000000 0.000000 -4.464397 -5.939065 1.913258 0.183501 8.380751 -1.736288 0.000000 0.000000 0.000000 -4.464397 -5.939065 1.913258 1.126229 -5.641831 -0.722998 -9.346830 -1.665568 -36.045312 -0.000769 -28.424300 -2.537039 0.000000 0.000000 0.000000 -4.464397 -5.939065 1.913258 10.045357 -5.469089 3.772902 4.495812 3.336458 70.727633 -5.588863 20.793990 8.779299 0.000000 0.000000 0.000000 
